<svg data-v-423bf9ae="" xmlns="http://www.w3.org/2000/svg" viewBox="0 0 319.68566592749096 60" class="font"><!----><!----><!----><g data-v-423bf9ae="" id="82b4d9e6-60d8-487e-a3c1-85edaf66e65e" fill="white" transform="matrix(5.893909931182861,0,0,5.893909931182861,-5.18663215637207,-29.76424217224121)"><path d="M3.49 5.05C2.32 5.05 1.47 5.21 0.88 5.49C1.12 6.12 1.16 6.86 1.16 7.31L1.16 14.24C1.16 14.85 1.64 15.23 2.28 15.23C2.83 15.23 3.23 14.95 3.40 14.80C3.15 14.22 3.12 13.55 3.12 13.09L3.12 11.24L3.44 11.24C6.20 11.24 7.76 10.05 7.76 7.95C7.76 5.88 6.22 5.05 3.49 5.05ZM3.35 10.58L3.12 10.58L3.12 5.74C3.23 5.73 3.37 5.73 3.53 5.73C5.10 5.73 5.61 6.71 5.61 8.09C5.61 9.55 5.07 10.58 3.35 10.58ZM11.77 15.22C13.96 15.22 15.23 13.80 15.23 11.41C15.23 9.00 13.96 7.59 11.77 7.59C9.59 7.59 8.32 9.00 8.32 11.41C8.32 13.80 9.59 15.22 11.77 15.22ZM11.77 14.57C10.81 14.57 10.37 13.51 10.37 11.41C10.37 9.30 10.81 8.23 11.77 8.23C12.73 8.23 13.16 9.30 13.16 11.41C13.16 13.51 12.73 14.57 11.77 14.57ZM18.82 6.05C18.82 5.43 18.34 5.07 17.71 5.07C17.16 5.07 16.76 5.33 16.59 5.49C16.83 6.12 16.87 6.78 16.87 7.31L16.87 14.03C16.87 14.66 17.35 15.02 17.99 15.02L22.13 15.02C22.76 15.02 22.74 13.48 22.25 13.16C21.53 13.58 20.05 13.96 18.83 13.99ZM26.68 15.22C28.87 15.22 30.14 13.80 30.14 11.41C30.14 9.00 28.87 7.59 26.68 7.59C24.50 7.59 23.23 9.00 23.23 11.41C23.23 13.80 24.50 15.22 26.68 15.22ZM26.68 14.57C25.72 14.57 25.28 13.51 25.28 11.41C25.28 9.30 25.72 8.23 26.68 8.23C27.64 8.23 28.07 9.30 28.07 11.41C28.07 13.51 27.64 14.57 26.68 14.57ZM35.46 15.22C37.38 15.22 39.16 14.04 39.16 11.42C39.16 10.09 38.47 9.45 37.51 9.45C37.02 9.45 36.53 9.63 36.34 10.02C37.06 10.37 37.17 11.20 37.17 11.91C37.17 13.01 36.90 14.56 35.57 14.56C34.08 14.56 33.43 13.09 33.43 10.14C33.43 7.18 34.09 5.71 35.63 5.71C36.48 5.71 36.99 6.38 37.13 7.87C38.16 7.88 38.70 7.31 38.70 6.73C38.70 5.66 37.06 5.05 35.60 5.05C32.89 5.05 31.28 6.90 31.28 10.14C31.28 13.37 32.82 15.22 35.46 15.22ZM43.68 15.22C45.86 15.22 47.14 13.80 47.14 11.41C47.14 9.00 45.86 7.59 43.68 7.59C41.50 7.59 40.22 9.00 40.22 11.41C40.22 13.80 41.50 15.22 43.68 15.22ZM43.68 14.57C42.71 14.57 42.28 13.51 42.28 11.41C42.28 9.30 42.71 8.23 43.68 8.23C44.63 8.23 45.07 9.30 45.07 11.41C45.07 13.51 44.63 14.57 43.68 14.57ZM51.44 15.23C53.91 15.23 55.12 13.97 55.12 12.45C55.12 10.75 53.70 9.90 52.40 9.18C50.69 8.23 50.25 7.73 50.25 6.87C50.25 5.96 50.99 5.71 51.56 5.71C52.51 5.71 52.98 6.17 53.13 6.71C53.23 6.96 53.27 7.25 53.26 7.55C53.42 7.57 53.63 7.59 53.79 7.57C54.56 7.56 54.80 7.14 54.80 6.68C54.80 5.59 53.55 5.05 51.79 5.05C49.99 5.05 48.44 5.75 48.44 7.56C48.44 9.20 49.53 9.97 51.32 10.99C52.58 11.70 53.23 12.18 53.23 13.13C53.23 14.10 52.54 14.55 51.72 14.55C50.41 14.55 49.83 13.72 49.70 12.98C49.66 12.74 49.64 12.46 49.70 12.24C48.47 12.05 48.09 12.61 48.09 13.26C48.09 14.38 49.15 15.23 51.44 15.23Z"></path></g><!----><!----></svg>