<svg data-v-423bf9ae="" xmlns="http://www.w3.org/2000/svg" viewBox="0 0 319.68566592749096 184" class="iconAboveSlogan"><!----><!----><!----><g data-v-423bf9ae="" id="46492309-dccf-414a-813d-25491e6c7ac1" fill="black" transform="matrix(5.893909931182861,0,0,5.893909931182861,-5.18663215637207,73.23575592041016)"><path d="M3.49 5.05C2.32 5.05 1.47 5.21 0.88 5.49C1.12 6.12 1.16 6.86 1.16 7.31L1.16 14.24C1.16 14.85 1.64 15.23 2.28 15.23C2.83 15.23 3.23 14.95 3.40 14.80C3.15 14.22 3.12 13.55 3.12 13.09L3.12 11.24L3.44 11.24C6.20 11.24 7.76 10.05 7.76 7.95C7.76 5.88 6.22 5.05 3.49 5.05ZM3.35 10.58L3.12 10.58L3.12 5.74C3.23 5.73 3.37 5.73 3.53 5.73C5.10 5.73 5.61 6.71 5.61 8.09C5.61 9.55 5.07 10.58 3.35 10.58ZM11.77 15.22C13.96 15.22 15.23 13.80 15.23 11.41C15.23 9.00 13.96 7.59 11.77 7.59C9.59 7.59 8.32 9.00 8.32 11.41C8.32 13.80 9.59 15.22 11.77 15.22ZM11.77 14.57C10.81 14.57 10.37 13.51 10.37 11.41C10.37 9.30 10.81 8.23 11.77 8.23C12.73 8.23 13.16 9.30 13.16 11.41C13.16 13.51 12.73 14.57 11.77 14.57ZM18.82 6.05C18.82 5.43 18.34 5.07 17.71 5.07C17.16 5.07 16.76 5.33 16.59 5.49C16.83 6.12 16.87 6.78 16.87 7.31L16.87 14.03C16.87 14.66 17.35 15.02 17.99 15.02L22.13 15.02C22.76 15.02 22.74 13.48 22.25 13.16C21.53 13.58 20.05 13.96 18.83 13.99ZM26.68 15.22C28.87 15.22 30.14 13.80 30.14 11.41C30.14 9.00 28.87 7.59 26.68 7.59C24.50 7.59 23.23 9.00 23.23 11.41C23.23 13.80 24.50 15.22 26.68 15.22ZM26.68 14.57C25.72 14.57 25.28 13.51 25.28 11.41C25.28 9.30 25.72 8.23 26.68 8.23C27.64 8.23 28.07 9.30 28.07 11.41C28.07 13.51 27.64 14.57 26.68 14.57ZM35.46 15.22C37.38 15.22 39.16 14.04 39.16 11.42C39.16 10.09 38.47 9.45 37.51 9.45C37.02 9.45 36.53 9.63 36.34 10.02C37.06 10.37 37.17 11.20 37.17 11.91C37.17 13.01 36.90 14.56 35.57 14.56C34.08 14.56 33.43 13.09 33.43 10.14C33.43 7.18 34.09 5.71 35.63 5.71C36.48 5.71 36.99 6.38 37.13 7.87C38.16 7.88 38.70 7.31 38.70 6.73C38.70 5.66 37.06 5.05 35.60 5.05C32.89 5.05 31.28 6.90 31.28 10.14C31.28 13.37 32.82 15.22 35.46 15.22ZM43.68 15.22C45.86 15.22 47.14 13.80 47.14 11.41C47.14 9.00 45.86 7.59 43.68 7.59C41.50 7.59 40.22 9.00 40.22 11.41C40.22 13.80 41.50 15.22 43.68 15.22ZM43.68 14.57C42.71 14.57 42.28 13.51 42.28 11.41C42.28 9.30 42.71 8.23 43.68 8.23C44.63 8.23 45.07 9.30 45.07 11.41C45.07 13.51 44.63 14.57 43.68 14.57ZM51.44 15.23C53.91 15.23 55.12 13.97 55.12 12.45C55.12 10.75 53.70 9.90 52.40 9.18C50.69 8.23 50.25 7.73 50.25 6.87C50.25 5.96 50.99 5.71 51.56 5.71C52.51 5.71 52.98 6.17 53.13 6.71C53.23 6.96 53.27 7.25 53.26 7.55C53.42 7.57 53.63 7.59 53.79 7.57C54.56 7.56 54.80 7.14 54.80 6.68C54.80 5.59 53.55 5.05 51.79 5.05C49.99 5.05 48.44 5.75 48.44 7.56C48.44 9.20 49.53 9.97 51.32 10.99C52.58 11.70 53.23 12.18 53.23 13.13C53.23 14.10 52.54 14.55 51.72 14.55C50.41 14.55 49.83 13.72 49.70 12.98C49.66 12.74 49.64 12.46 49.70 12.24C48.47 12.05 48.09 12.61 48.09 13.26C48.09 14.38 49.15 15.23 51.44 15.23Z"></path></g><!----><g data-v-423bf9ae="" id="bd3c12e0-7555-4f88-a8ee-9bee2a5a90d9" transform="matrix(1.1711429357528687,0,0,1.1711429357528687,104.84070587158203,-12.981151580810547)" stroke="none" fill="black"><path d="M34.225 56.851v-1.677h-14.36v-4.068a2.868 2.868 0 0 0-2.868-2.868H5.338a2.868 2.868 0 0 0-2.868 2.868v11.66a2.868 2.868 0 0 0 2.868 2.868h9.023v9.953a4.03 4.03 0 0 0 4.029 4.029h16.383a4.03 4.03 0 0 0 4.029-4.029V62.884c-2.633-.756-4.577-3.16-4.577-6.033zM71.375 32.308v5.912h5.01a3.594 3.594 0 0 0 3.594-3.594V20.014a3.594 3.594 0 0 0-3.594-3.594H61.773a3.594 3.594 0 0 0-3.594 3.594v5.99h6.893a6.311 6.311 0 0 1 6.303 6.304zM20.592 36.018h13.633v-3.71a6.31 6.31 0 0 1 6.302-6.303h.476v-10.4a4.03 4.03 0 0 0-4.029-4.029H20.592a4.03 4.03 0 0 0-4.029 4.029v16.383a4.03 4.03 0 0 0 4.029 4.03zM87.339 56.936H71.366c-.047 3.435-2.847 6.219-6.294 6.219h-4.03v20.078a5.19 5.19 0 0 0 5.191 5.191h21.106a5.19 5.19 0 0 0 5.191-5.191V62.127a5.19 5.19 0 0 0-5.191-5.191z"></path><path d="M70.842 56.851V32.308a5.778 5.778 0 0 0-5.77-5.771H40.528a5.777 5.777 0 0 0-5.77 5.771v24.543a5.777 5.777 0 0 0 5.77 5.771h24.544a5.778 5.778 0 0 0 5.77-5.771z"></path></g><!----><g data-v-423bf9ae="" id="79acd4c1-0e3d-4d44-aaee-81f3c3359290" fill="black" transform="matrix(0.8326882123947144,0,0,0.8326882123947144,40.15301513671875,202.11996459960938)"><path d="M7.10 15.68L6.38 13.24L2.18 13.24L1.47 15.68L0.21 15.68L3.18 5.88L5.39 5.88L8.36 15.68L7.10 15.68ZM4.37 6.38L4.20 6.38L2.51 12.15L6.06 12.15L4.37 6.38ZM16.74 6.97L16.74 5.88L22.96 5.88L22.96 6.97L20.44 6.97L20.44 14.59L22.96 14.59L22.96 15.68L16.74 15.68L16.74 14.59L19.26 14.59L19.26 6.97L16.74 6.97ZM47.54 11.87L47.54 9.69L47.54 9.69Q47.54 7.78 48.45 6.73L48.45 6.73L48.45 6.73Q49.36 5.68 50.99 5.68L50.99 5.68L50.99 5.68Q52.61 5.68 53.52 6.73L53.52 6.73L53.52 6.73Q54.43 7.78 54.43 9.69L54.43 9.69L54.43 11.87L54.43 11.87Q54.43 13.83 53.52 14.85L53.52 14.85L53.52 14.85Q52.61 15.88 50.99 15.88L50.99 15.88L50.99 15.88Q49.36 15.88 48.45 14.85L48.45 14.85L48.45 14.85Q47.54 13.83 47.54 11.87L47.54 11.87ZM50.99 14.78L50.99 14.78L50.99 14.78Q52.12 14.78 52.69 14.01L52.69 14.01L52.69 14.01Q53.26 13.23 53.26 11.79L53.26 11.79L53.26 9.77L53.26 9.77Q53.26 8.43 52.69 7.60L52.69 7.60L52.69 7.60Q52.12 6.78 50.99 6.78L50.99 6.78L50.99 6.78Q49.85 6.78 49.29 7.60L49.29 7.60L49.29 7.60Q48.72 8.43 48.72 9.77L48.72 9.77L48.72 11.79L48.72 11.79Q48.72 13.23 49.29 14.01L49.29 14.01L49.29 14.01Q49.85 14.78 50.99 14.78ZM66.96 11.65L64.64 11.65L64.64 15.68L63.46 15.68L63.46 5.88L66.96 5.88L66.96 5.88Q67.72 5.88 68.28 6.10L68.28 6.10L68.28 6.10Q68.84 6.31 69.21 6.68L69.21 6.68L69.21 6.68Q69.58 7.04 69.77 7.53L69.77 7.53L69.77 7.53Q69.96 8.01 69.96 8.54L69.96 8.54L69.96 8.96L69.96 8.96Q69.96 9.49 69.77 9.98L69.77 9.98L69.77 9.98Q69.58 10.47 69.20 10.84L69.20 10.84L69.20 10.84Q68.82 11.21 68.26 11.43L68.26 11.43L68.26 11.43Q67.70 11.65 66.96 11.65L66.96 11.65ZM64.64 6.97L64.64 10.56L66.82 10.56L66.82 10.56Q68.78 10.56 68.78 8.88L68.78 8.88L68.78 8.62L68.78 8.62Q68.78 7.88 68.30 7.43L68.30 7.43L68.30 7.43Q67.82 6.97 66.82 6.97L66.82 6.97L64.64 6.97ZM79.16 15.68L79.16 5.88L85.09 5.88L85.09 6.97L80.33 6.97L80.33 10.22L85.01 10.22L85.01 11.31L80.33 11.31L80.33 14.59L85.18 14.59L85.18 15.68L79.16 15.68ZM100.76 12.15L100.76 15.68L99.58 15.68L99.58 12.40L99.58 12.40Q99.58 12.04 99.41 11.84L99.41 11.84L99.41 11.84Q99.25 11.65 98.83 11.65L98.83 11.65L95.77 11.65L95.77 15.68L94.60 15.68L94.60 5.88L98.10 5.88L98.10 5.88Q98.85 5.88 99.41 6.10L99.41 6.10L99.41 6.10Q99.97 6.31 100.34 6.68L100.34 6.68L100.34 6.68Q100.72 7.04 100.91 7.53L100.91 7.53L100.91 7.53Q101.09 8.01 101.09 8.54L101.09 8.54L101.09 8.96L101.09 8.96Q101.09 9.51 100.79 10.05L100.79 10.05L100.79 10.05Q100.49 10.60 99.86 10.89L99.86 10.89L99.86 11.06L99.86 11.06Q100.28 11.13 100.52 11.40L100.52 11.40L100.52 11.40Q100.76 11.66 100.76 12.15L100.76 12.15ZM95.77 6.97L95.77 10.56L97.96 10.56L97.96 10.56Q98.95 10.56 99.44 10.13L99.44 10.13L99.44 10.13Q99.92 9.70 99.92 8.88L99.92 8.88L99.92 8.62L99.92 8.62Q99.92 7.88 99.44 7.43L99.44 7.43L99.44 7.43Q98.95 6.97 97.96 6.97L97.96 6.97L95.77 6.97ZM116.07 15.68L115.36 13.24L111.16 13.24L110.45 15.68L109.19 15.68L112.15 5.88L114.37 5.88L117.33 15.68L116.07 15.68ZM113.34 6.38L113.18 6.38L111.48 12.15L115.04 12.15L113.34 6.38ZM125.38 6.97L125.38 5.88L132.27 5.88L132.27 6.97L129.42 6.97L129.42 15.68L128.24 15.68L128.24 6.97L125.38 6.97ZM141.29 6.97L141.29 5.88L147.50 5.88L147.50 6.97L144.98 6.97L144.98 14.59L147.50 14.59L147.50 15.68L141.29 15.68L141.29 14.59L143.81 14.59L143.81 6.97L141.29 6.97ZM159.05 5.88L161.88 15.18L162.05 15.18L162.05 5.88L163.23 5.88L163.23 15.68L160.87 15.68L158.05 6.38L157.88 6.38L157.88 15.68L156.70 15.68L156.70 5.88L159.05 5.88ZM174.59 12.07L174.59 10.98L178.96 10.98L178.96 15.68L177.87 15.68L177.87 14.50L177.70 14.50L177.70 14.50Q177.46 15.12 176.86 15.50L176.86 15.50L176.86 15.50Q176.26 15.88 175.46 15.88L175.46 15.88L175.46 15.88Q173.88 15.88 172.98 14.85L172.98 14.85L172.98 14.85Q172.07 13.83 172.07 11.87L172.07 11.87L172.07 9.69L172.07 9.69Q172.07 7.78 172.98 6.73L172.98 6.73L172.98 6.73Q173.89 5.68 175.52 5.68L175.52 5.68L175.52 5.68Q176.36 5.68 177.00 5.96L177.00 5.96L177.00 5.96Q177.65 6.23 178.08 6.71L178.08 6.71L178.08 6.71Q178.51 7.20 178.74 7.85L178.74 7.85L178.74 7.85Q178.96 8.50 178.96 9.24L178.96 9.24L178.96 9.41L177.79 9.41L177.79 9.24L177.79 9.24Q177.79 8.76 177.65 8.32L177.65 8.32L177.65 8.32Q177.52 7.87 177.25 7.53L177.25 7.53L177.25 7.53Q176.97 7.18 176.55 6.98L176.55 6.98L176.55 6.98Q176.12 6.78 175.52 6.78L175.52 6.78L175.52 6.78Q174.38 6.78 173.82 7.60L173.82 7.60L173.82 7.60Q173.25 8.43 173.25 9.77L173.25 9.77L173.25 11.79L173.25 11.79Q173.25 13.23 173.82 14.01L173.82 14.01L173.82 14.01Q174.38 14.78 175.55 14.78L175.55 14.78L175.55 14.78Q176.60 14.78 177.19 14.11L177.19 14.11L177.19 14.11Q177.79 13.44 177.79 12.24L177.79 12.24L177.79 12.07L174.59 12.07ZM208.98 9.21L208.98 8.71L208.98 8.71Q208.98 8.23 208.79 7.87L208.79 7.87L208.79 7.87Q208.60 7.50 208.28 7.27L208.28 7.27L208.28 7.27Q207.96 7.03 207.54 6.90L207.54 6.90L207.54 6.90Q207.12 6.78 206.65 6.78L206.65 6.78L206.65 6.78Q206.25 6.78 205.88 6.88L205.88 6.88L205.88 6.88Q205.52 6.99 205.23 7.18L205.23 7.18L205.23 7.18Q204.95 7.38 204.78 7.66L204.78 7.66L204.78 7.66Q204.61 7.95 204.61 8.33L204.61 8.33L204.61 8.41L204.61 8.41Q204.61 8.82 204.78 9.11L204.78 9.11L204.78 9.11Q204.95 9.39 205.28 9.60L205.28 9.60L205.28 9.60Q205.60 9.80 206.09 9.93L206.09 9.93L206.09 9.93Q206.58 10.07 207.24 10.16L207.24 10.16L207.24 10.16Q208.78 10.40 209.51 11.07L209.51 11.07L209.51 11.07Q210.24 11.73 210.24 12.85L210.24 12.85L210.24 13.02L210.24 13.02Q210.24 13.65 210.02 14.17L210.02 14.17L210.02 14.17Q209.80 14.70 209.38 15.08L209.38 15.08L209.38 15.08Q208.95 15.46 208.32 15.67L208.32 15.67L208.32 15.67Q207.69 15.88 206.86 15.88L206.86 15.88L206.86 15.88Q205.93 15.88 205.21 15.60L205.21 15.60L205.21 15.60Q204.48 15.33 204.00 14.85L204.00 14.85L204.00 14.85Q203.52 14.36 203.27 13.71L203.27 13.71L203.27 13.71Q203.01 13.06 203.01 12.29L203.01 12.29L203.01 11.87L204.19 11.87L204.19 12.21L204.19 12.21Q204.19 13.50 204.90 14.14L204.90 14.14L204.90 14.14Q205.60 14.78 206.86 14.78L206.86 14.78L206.86 14.78Q207.96 14.78 208.51 14.30L208.51 14.30L208.51 14.30Q209.06 13.82 209.06 13.02L209.06 13.02L209.06 12.94L209.06 12.94Q209.06 12.17 208.50 11.76L208.50 11.76L208.50 11.76Q207.93 11.35 206.65 11.17L206.65 11.17L206.65 11.17Q205.91 11.07 205.32 10.87L205.32 10.87L205.32 10.87Q204.72 10.67 204.30 10.34L204.30 10.34L204.30 10.34Q203.88 10.01 203.66 9.55L203.66 9.55L203.66 9.55Q203.43 9.09 203.43 8.46L203.43 8.46L203.43 8.29L203.43 8.29Q203.43 7.71 203.67 7.24L203.67 7.24L203.67 7.24Q203.91 6.76 204.34 6.41L204.34 6.41L204.34 6.41Q204.76 6.06 205.36 5.87L205.36 5.87L205.36 5.87Q205.95 5.68 206.67 5.68L206.67 5.68L206.67 5.68Q207.49 5.68 208.15 5.92L208.15 5.92L208.15 5.92Q208.80 6.16 209.24 6.56L209.24 6.56L209.24 6.56Q209.69 6.96 209.92 7.50L209.92 7.50L209.92 7.50Q210.15 8.04 210.15 8.62L210.15 8.62L210.15 9.21L208.98 9.21ZM221.65 15.68L221.65 12.24L221.40 12.24L218.33 5.88L219.65 5.88L222.15 11.23L222.32 11.23L224.83 5.88L226.14 5.88L223.08 12.24L222.82 12.24L222.82 15.68L221.65 15.68ZM240.11 9.21L240.11 8.71L240.11 8.71Q240.11 8.23 239.93 7.87L239.93 7.87L239.93 7.87Q239.74 7.50 239.41 7.27L239.41 7.27L239.41 7.27Q239.09 7.03 238.67 6.90L238.67 6.90L238.67 6.90Q238.25 6.78 237.79 6.78L237.79 6.78L237.79 6.78Q237.38 6.78 237.02 6.88L237.02 6.88L237.02 6.88Q236.66 6.99 236.37 7.18L236.37 7.18L236.37 7.18Q236.08 7.38 235.91 7.66L235.91 7.66L235.91 7.66Q235.75 7.95 235.75 8.33L235.75 8.33L235.75 8.41L235.75 8.41Q235.75 8.82 235.91 9.11L235.91 9.11L235.91 9.11Q236.08 9.39 236.41 9.60L236.41 9.60L236.41 9.60Q236.74 9.80 237.23 9.93L237.23 9.93L237.23 9.93Q237.72 10.07 238.38 10.16L238.38 10.16L238.38 10.16Q239.92 10.40 240.65 11.07L240.65 11.07L240.65 11.07Q241.37 11.73 241.37 12.85L241.37 12.85L241.37 13.02L241.37 13.02Q241.37 13.65 241.16 14.17L241.16 14.17L241.16 14.17Q240.94 14.70 240.51 15.08L240.51 15.08L240.51 15.08Q240.09 15.46 239.46 15.67L239.46 15.67L239.46 15.67Q238.83 15.88 238.00 15.88L238.00 15.88L238.00 15.88Q237.06 15.88 236.34 15.60L236.34 15.60L236.34 15.60Q235.62 15.33 235.14 14.85L235.14 14.85L235.14 14.85Q234.65 14.36 234.40 13.71L234.40 13.71L234.40 13.71Q234.15 13.06 234.15 12.29L234.15 12.29L234.15 11.87L235.33 11.87L235.33 12.21L235.33 12.21Q235.33 13.50 236.03 14.14L236.03 14.14L236.03 14.14Q236.74 14.78 238.00 14.78L238.00 14.78L238.00 14.78Q239.09 14.78 239.65 14.30L239.65 14.30L239.65 14.30Q240.20 13.82 240.20 13.02L240.20 13.02L240.20 12.94L240.20 12.94Q240.20 12.17 239.63 11.76L239.63 11.76L239.63 11.76Q239.06 11.35 237.79 11.17L237.79 11.17L237.79 11.17Q237.05 11.07 236.45 10.87L236.45 10.87L236.45 10.87Q235.86 10.67 235.44 10.34L235.44 10.34L235.44 10.34Q235.02 10.01 234.79 9.55L234.79 9.55L234.79 9.55Q234.57 9.09 234.57 8.46L234.57 8.46L234.57 8.29L234.57 8.29Q234.57 7.71 234.81 7.24L234.81 7.24L234.81 7.24Q235.05 6.76 235.47 6.41L235.47 6.41L235.47 6.41Q235.90 6.06 236.50 5.87L236.50 5.87L236.50 5.87Q237.09 5.68 237.80 5.68L237.80 5.68L237.80 5.68Q238.63 5.68 239.28 5.92L239.28 5.92L239.28 5.92Q239.93 6.16 240.38 6.56L240.38 6.56L240.38 6.56Q240.83 6.96 241.06 7.50L241.06 7.50L241.06 7.50Q241.29 8.04 241.29 8.62L241.29 8.62L241.29 9.21L240.11 9.21ZM249.93 6.97L249.93 5.88L256.82 5.88L256.82 6.97L253.96 6.97L253.96 15.68L252.78 15.68L252.78 6.97L249.93 6.97ZM265.97 15.68L265.97 5.88L271.91 5.88L271.91 6.97L267.15 6.97L267.15 10.22L271.82 10.22L271.82 11.31L267.15 11.31L267.15 14.59L271.99 14.59L271.99 15.68L265.97 15.68ZM280.87 15.68L280.87 5.88L283.11 5.88L284.42 15.18L284.59 15.18L285.91 5.88L288.15 5.88L288.15 15.68L287.06 15.68L287.06 6.38L286.89 6.38L285.57 15.68L283.44 15.68L282.13 6.38L281.96 6.38L281.96 15.68L280.87 15.68Z"></path></g></svg>